<svg xmlns="http://www.w3.org/2000/svg" viewBox="0 0 64 64" role="img" aria-labelledby="title desc">
  <title id="title">Superpowers Architecture</title>
  <desc id="desc">A blue architectural arch with three connected nodes.</desc>
  <rect width="64" height="64" rx="14" fill="#0f172a"/>
  <path d="M14 48V28c0-10 8-18 18-18s18 8 18 18v20h-8V28c0-6-4-10-10-10S22 22 22 28v20h-8z" fill="#60a5fa"/>
  <path d="M24 48V30c0-5 3-8 8-8s8 3 8 8v18h-6V30c0-2-1-3-2-3s-2 1-2 3v18h-6z" fill="#f8fafc"/>
  <circle cx="18" cy="50" r="4" fill="#22c55e"/>
  <circle cx="32" cy="50" r="4" fill="#f59e0b"/>
  <circle cx="46" cy="50" r="4" fill="#ef4444"/>
  <path d="M22 50h6M36 50h6" stroke="#e2e8f0" stroke-width="2" stroke-linecap="round"/>
</svg>
